<svg width="31" height="31" viewBox="0 0 31 31" fill="none" xmlns="http://www.w3.org/2000/svg">
<mask id="mask0_904_2451" style="mask-type:luminance" maskUnits="userSpaceOnUse" x="0" y="0" width="31" height="31">
<path d="M15.5 31C24.0604 31 31 24.0604 31 15.5C31 6.93959 24.0604 0 15.5 0C6.93959 0 0 6.93959 0 15.5C0 24.0604 6.93959 31 15.5 31Z" fill="white"/>
</mask>
<g mask="url(#mask0_904_2451)">
<path d="M0 0L0.484375 1.33203L0 2.72461V4.11719L1.9375 7.38672L0 10.6562V12.5938L1.9375 15.5L0 18.4062V20.3438L1.9375 23.6133L0 26.8828V31L1.33203 30.5156L2.72461 31H4.11719L7.38672 29.0625L10.6562 31H12.5938L15.5 29.0625L18.4062 31H20.3438L23.6133 29.0625L26.8828 31H31L30.5156 29.668L31 28.2754V26.8828L29.0625 23.6133L31 20.3438V18.4062L29.0625 15.5L31 12.5938V10.6562L29.0625 7.38672L31 4.11719V0L29.668 0.484375L28.2754 0H26.8828L23.6133 1.9375L20.3438 0H18.4062L15.5 1.9375L12.5938 0H10.6562L7.38672 1.9375L4.11719 0H0Z" fill="#EEEEEE"/>
<path d="M20.3438 0V6.53906L26.8828 0H20.3438ZM31 4.11719L24.4609 10.6562H31V4.11719ZM0 10.6562H6.53906L0 4.11719V10.6562ZM4.11719 0L10.6562 6.53906V0H4.11719ZM10.6562 31V24.4609L4.11719 31H10.6562ZM0 26.8828L6.53906 20.3438H0V26.8828ZM31 20.3438H24.4609L31 26.8828V20.3438ZM26.8828 31L20.3438 24.4609V31H26.8828Z" fill="#0052B4"/>
<path d="M0 0V2.72461L7.93164 10.6562H10.6562L0 0ZM12.5938 0V12.5938H0V18.4062H12.5938V31H18.4062V18.4062H31V12.5938H18.4062V0H12.5938ZM28.2754 0L20.3438 7.93164V10.6562L31 0H28.2754ZM10.6562 20.3438L0 31H2.72461L10.6562 23.0684V20.3438ZM20.3438 20.3438L31 31V28.2754L23.0684 20.3438H20.3438Z" fill="#D80027"/>
</g>
</svg>
